# xmcd
#
# Track frame offsets: 
#        150
#        17792
#        44737
#        62780
#        77357
#        91970
#        103795
#        117485
#        134655
#        147960
#        164277
#
# Disc length: 2468 seconds
#
# Revision: 3
# Processed by: cddbd v1.5.2PL0 Copyright (c) Steve Scherf et al.
# Submitted via: ExactAudioCopyFreeDBPlugin 1.0
#
DISCID=9a09a20b
DTITLE=The Sugarman 3 - Pure Cane Sugar
DYEAR=2002
DGENRE=Soul
TTITLE0=Funky So-and-So
TTITLE1=Take It as It Come
TTITLE2=Pure Cane
TTITLE3=Shot Down
TTITLE4=Modern Jive
TTITLE5=Promised Land
TTITLE6=Bosco's Blues
TTITLE7=Country Girl
TTITLE8=Honey Wagon
TTITLE9=La Culebra
TTITLE10=Down to It
EXTD=YEAR: 2002
EXTT0=
EXTT1=
EXTT2=
EXTT3=
EXTT4=
EXTT5=
EXTT6=
EXTT7=
EXTT8=
EXTT9=
EXTT10=
PLAYORDER=
